<mxfile host="Electron" agent="Mozilla/5.0 (Windows NT 10.0; Win64; x64) AppleWebKit/537.36 (KHTML, like Gecko) draw.io/27.0.9 Chrome/134.0.6998.205 Electron/35.4.0 Safari/537.36" version="27.0.9">
  <diagram name="Page-1" id="htJ6rbbciNGCYE3BOmqV">
    <mxGraphModel dx="1603" dy="963" grid="1" gridSize="10" guides="1" tooltips="1" connect="1" arrows="1" fold="1" page="1" pageScale="1" pageWidth="850" pageHeight="1100" math="0" shadow="0">
      <root>
        <mxCell id="0" />
        <object label="Front&#xa;" id="1">
          <mxCell parent="0" />
        </object>
        <mxCell id="KXWoswV7UzoRQ9F2BBlx-9" value="" style="rounded=0;whiteSpace=wrap;html=1;" vertex="1" parent="1">
          <mxGeometry x="140" y="120" width="1300" height="690" as="geometry" />
        </mxCell>
        <mxCell id="KXWoswV7UzoRQ9F2BBlx-4" value="" style="shape=image;verticalLabelPosition=bottom;labelBackgroundColor=default;verticalAlign=top;aspect=fixed;imageAspect=0;image=https://raw.githubusercontent.com/Salaar-Saaiem/Garbage-Classification-using-ML/refs/heads/main/Assets/Testing.png;" vertex="1" parent="1">
          <mxGeometry x="190" y="180" width="1200" height="580" as="geometry" />
        </mxCell>
        <mxCell id="KXWoswV7UzoRQ9F2BBlx-6" value="" style="verticalLabelPosition=bottom;verticalAlign=top;html=1;shape=mxgraph.basic.frame;dx=20;whiteSpace=wrap;gradientColor=#00C061;fillColor=#66FF66;" vertex="1" parent="1">
          <mxGeometry x="140" y="120" width="1300" height="690" as="geometry" />
        </mxCell>
        <mxCell id="KXWoswV7UzoRQ9F2BBlx-12" value="BG" parent="0" />
      </root>
    </mxGraphModel>
  </diagram>
</mxfile>
